<svg xmlns="http://www.w3.org/2000/svg" viewBox="0 0 64 64">
  <rect width="64" height="64" rx="14" fill="#163660"/>
  <g transform="translate(8 8) scale(0.0525)">
    <path fill="#e0b83a" d="M456.98,0C205.07,0,0,204.99,0,456.98s204.99,456.98,456.98,456.98,456.98-204.99,456.98-456.98S708.97,0,456.98,0ZM189.7,350.12l-.07.07,41.14-23.84.28-57.47c0-2.27.14-4.55.34-7.65,1.03-23.77,4.55-48.72,10.34-73.87.83-3.45,2.21-7.24,3.86-11.3,17.92-43,55.88-75.45,104.19-89.92,26.8-7.79,54.78-12.54,83.58-14.26-20.26,18.95-37.76,40.86-51.89,65.32-22.88,39.83-35.9,85.51-37.76,134.37-.14,2.89-.28,5.37-.28,7.86v111.9l-97.85,56.43c-7.86,4.69-17.23,7.17-27.08,7.17h-3.86c-18.88-.9-35.83-11.3-45.34-27.91-10.2-17.64-10.13-38.73.14-56.43,4.96-8.54,11.99-15.57,20.26-20.47ZM283.2,785.4l-.14.14-3.93-.14c-17.57-1.1-34.8-7.17-50.44-17.3-36.8-27.08-68.77-60.29-94.06-98.47,70.01,21.22,147.94,15.5,218.02-21.36,2.83-1.45,5.03-2.62,7.03-3.86l97.16-55.95,97.36,56.09c9.51,5.51,17.09,13.57,22.19,23.7,8.68,16.74,8.13,36.59-1.52,53.2-14.88,25.91-49.82,35.97-77.04,20.4l-40.93-23.08-50.3,28.39c-1.38.83-2.76,1.58-6.48,3.31-21.5,11.3-45.41,20.95-69.11,27.98-15.37,4.62-31.42,6.96-47.82,6.96ZM738.87,708.52l-.96,13.23c-70.49,74.76-170.12,121.83-280.8,121.83l-.12-.16c-26.12,0-51.61-2.69-76.28-7.65,17.5-6.55,34.45-13.64,49.47-21.57,3.93-1.65,8.13-3.93,11.71-5.99l14.88-8.41,6.06,3.45c19.22,11.03,41.07,16.81,63.12,16.81,46.1,0,87.24-23.7,109.97-63.26,21.71-37.42,22.88-82.55,3.31-120.45-11.03-22.05-28.25-40.38-49.75-52.85l-132.71-76.49-132.58,76.42-6.27,3.38c-70.15,36.93-155.86,31.83-219.81-11.3l-11.16-7.58c-10.54-35.14-16.4-72.35-16.4-110.87,0-97.64,36.66-186.6,96.61-254.74-3.1,18.81-5.51,37.35-6.27,54.78-.28,3.58-.48,7.72-.48,11.58l-.07,16.88-6.2,3.58c-19.02,11.09-34.94,27.08-45.89,46.17-23.08,39.69-23.15,87.17-.28,127,21.57,37.49,60.09,61.12,104.74,63.26h5.65c22.6,0,44.44-5.93,62.84-16.88l132.71-76.55.34-160.2c1.31-35.21,11.09-69.6,28.25-99.43,21.5-37.07,53.06-66.49,91.51-85.17l11.92-5.86c129.89,30.8,234.42,127.06,276.79,252.06-14.47-11.92-29.08-23.01-43.14-31.83-2.76-2.07-5.79-4-11.09-7.37l-14.75-8.61-.07-7.03c0-21.84-5.79-43.62-16.95-63.26-23.01-39.62-64.22-63.26-110.11-63.26-43.14,0-82.83,21.64-105.7,57.4-13.78,20.81-20.95,44.93-20.67,69.32v153.25l132.02,76.28c1.58.96,3.17,2,6.62,4.27,29.97,18.81,54.85,44.44,72.01,74.21,21.36,36.66,31.01,78.76,27.98,121.62ZM802.48,628.99c-6.27-27.08-16.54-53.13-30.59-77.45h0c-22.81-39.62-55.81-73.73-94.33-97.85-3.86-2.69-6.82-4.62-9.92-6.34l-96.88-55.95v-112.87c-.14-10.61,3.03-21.02,9.23-30.46,10.2-15.85,27.56-25.36,46.58-25.36,20.81,0,38.73,10.27,48.92,27.84,4.96,8.75,7.58,18.47,7.58,28.39l.34,47.41,49.34,28.87c1.65,1.03,3.03,1.79,6.68,4.41,21.5,13.57,42.24,29.91,62.29,48.99,27.91,27.29,41.62,64.57,37.69,100.4-5.79,42.58-18.47,82.9-36.93,119.97Z"/>
  </g>
</svg>
