<svg xmlns="http://www.w3.org/2000/svg" viewBox="0 0 1200 1200"><path d="m1133.8 191.81-214.22-151.4c-4.0312-2.8594-8.9062-4.4062-13.875-4.4062h-611.44c-4.9688 0-9.7969 1.5469-13.875 4.4062l-214.22 151.4c-6.375 4.5-10.125 11.812-10.125 19.594v114.84c0 357.19 209.53 685.13 533.9 835.5 3.1875 1.5 6.6562 2.25 10.078 2.25 3.4688 0 6.8906-0.75 10.078-2.25 324.32-150.32 533.9-478.31 533.9-835.5v-114.84c0-7.7812-3.7969-15.094-10.125-19.594zm-37.828 134.48c0 334.87-194.29 642.56-495.98 787.18-301.69-144.56-495.98-452.34-495.98-787.18v-102.47l197.86-139.82h596.26l197.86 139.87v102.47zm-471.32 692.76c1.125 2.0156 0.46875 4.5938-1.5469 5.7188-6.9844 3.9375-14.016 7.875-21.094 11.672-0.60938 0.32813-1.3125 0.46875-1.9688 0.46875s-1.3594-0.1875-1.9688-0.46875c-7.125-3.7969-14.156-7.6875-21.094-11.672-2.0156-1.125-2.7188-3.75-1.5469-5.7188 1.1719-2.0625 3.75-2.7188 5.7188-1.5938 6.2344 3.5625 12.562 7.125 18.938 10.5 6.375-3.4219 12.656-6.9375 18.938-10.5 1.9688-1.125 4.5938-0.46875 5.7188 1.5938zm-102.09-38.625c1.875 1.3125 2.3438 3.9375 1.0312 5.8125-0.79688 1.1719-2.1094 1.7812-3.4688 1.7812-0.84375 0-1.6875-0.23438-2.3906-0.75-12.703-8.8125-25.312-18.188-37.5-27.75-1.8281-1.4062-2.1562-4.0781-0.70312-5.9062 1.4531-1.7812 4.0781-2.1562 5.9062-0.70313 12.047 9.4688 24.562 18.75 37.125 27.469zm-167.86-157.45c1.4531 1.8281 1.125 4.4531-0.65625 5.9062-0.75 0.60938-1.6875 0.9375-2.625 0.9375-1.2188 0-2.4375-0.5625-3.2812-1.5938-9.6562-12.141-19.078-24.656-28.031-37.312-1.3125-1.875-0.89062-4.5 1.0312-5.8125 1.875-1.4062 4.5-0.9375 5.8594 1.0312 8.8125 12.469 18.188 24.938 27.75 36.938zm78.234 84.75c1.6875 1.5938 1.7812 4.2188 0.1875 5.9531-0.84375 0.84375-1.9219 1.3125-3.0469 1.3125-1.0312 0-2.0625-0.375-2.8594-1.125-11.25-10.547-22.359-21.609-33.094-32.906-1.5938-1.6875-1.5-4.3125 0.14062-5.9062 1.6875-1.5938 4.3125-1.5938 5.9531 0.1875 10.594 11.156 21.609 22.125 32.719 32.531zm-210.52-326.68c4.9688 14.625 10.406 29.156 16.125 43.266 0.89062 2.1562-0.1875 4.5938-2.2969 5.4375-0.51562 0.1875-1.0312 0.28125-1.5938 0.28125-1.6406 0-3.2344-0.98438-3.8906-2.625-5.8125-14.25-11.25-28.969-16.312-43.688-0.75-2.2031 0.42188-4.5938 2.625-5.3438 2.25-0.70312 4.5938 0.46875 5.3438 2.625zm-41.672-226.18c0.5625 15.234 1.5938 30.75 3 46.031 0.1875 2.3438-1.5 4.3594-3.7969 4.5938h-0.375c-2.1562 0-3.9844-1.5938-4.1719-3.7969-1.4531-15.469-2.4844-31.125-3.0469-46.594-0.09375-2.2969 1.7344-4.2188 4.0312-4.3125 2.3906-0.1875 4.2656 1.7344 4.3594 4.0312zm12.562 114.61c2.8125 15.188 6.0469 30.375 9.7031 45.141 0.5625 2.25-0.84375 4.5-3.0938 5.0625-0.32812 0.09375-0.65625 0.09375-0.98438 0.09375-1.875 0-3.6094-1.3125-4.0781-3.1875-3.6562-15-6.9375-30.281-9.7969-45.609-0.42188-2.2969 1.0781-4.5 3.375-4.875 2.25-0.46875 4.4531 1.0781 4.875 3.375zm96.141 258.37c1.1719 1.9688 0.51562 4.5938-1.5 5.7188-0.65625 0.375-1.4062 0.5625-2.1094 0.5625-1.4531 0-2.8594-0.75-3.6094-2.0625-7.875-13.406-15.375-27.188-22.406-40.922-1.0312-2.0625-0.23438-4.5938 1.8281-5.625s4.5938-0.23438 5.625 1.875c6.9375 13.594 14.391 27.188 22.172 40.5zm-117.61-442.74v-24c0-1.3594 0.65625-2.625 1.7812-3.4219l19.594-13.875c1.875-1.4062 4.5-0.9375 5.8594 1.0312 1.3125 1.875 0.89062 4.5-1.0312 5.8125l-17.812 12.609v21.844c0 2.3438-1.875 4.2188-4.2188 4.2188s-4.2188-1.875-4.2188-4.2188zm173.06-129.14c0-2.3438 1.875-4.2188 4.2188-4.2188h45.609c2.3438 0 4.2188 1.875 4.2188 4.2188s-1.875 4.2188-4.2188 4.2188h-45.609c-2.3438 0-4.2188-1.875-4.2188-4.2188zm-52.688 23.062c1.3125 1.875 0.89062 4.5-1.0312 5.8125l-37.266 26.344c-0.75 0.5625-1.5938 0.75-2.4375 0.75-1.3125 0-2.625-0.60938-3.4219-1.7812-1.3125-1.875-0.89062-4.5 1.0312-5.8125l37.266-26.344c1.875-1.4062 4.5-0.9375 5.8594 1.0312zm616.6 5.8125c-1.875-1.3125-2.3438-3.9375-1.0312-5.8125 1.3594-1.875 3.9844-2.3438 5.8594-1.0312l37.266 26.344c1.875 1.3125 2.3438 3.9375 1.0312 5.8125-0.84375 1.1719-2.1094 1.7812-3.4219 1.7812-0.84375 0-1.6875-0.23438-2.4375-0.75zm-335.81-28.875c0-2.3438 1.875-4.2188 4.2188-4.2188h45.609c2.3438 0 4.2188 1.875 4.2188 4.2188s-1.875 4.2188-4.2188 4.2188h-45.609c-2.3438 0-4.2188-1.875-4.2188-4.2188zm-114.05 0c0-2.3438 1.875-4.2188 4.2188-4.2188h45.609c2.3438 0 4.2188 1.875 4.2188 4.2188s-1.875 4.2188-4.2188 4.2188h-45.609c-2.3438 0-4.2188-1.875-4.2188-4.2188zm228.1 0c0-2.3438 1.875-4.2188 4.2188-4.2188h45.609c2.3438 0 4.2188 1.875 4.2188 4.2188s-1.875 4.2188-4.2188 4.2188h-45.609c-2.3438 0-4.2188-1.875-4.2188-4.2188zm114.05 0c0-2.3438 1.875-4.2188 4.2188-4.2188h45.609c2.3438 0 4.2188 1.875 4.2188 4.2188s-1.875 4.2188-4.2188 4.2188h-45.609c-2.3438 0-4.2188-1.875-4.2188-4.2188zm200.86 94.688c-1.875-1.3125-2.3438-3.9375-1.0312-5.8125 1.3594-1.875 3.9844-2.3438 5.8594-1.0312l19.594 13.875c1.125 0.75 1.7812 2.0625 1.7812 3.4219v24c0 2.3438-1.875 4.2188-4.2188 4.2188s-4.2188-1.875-4.2188-4.2188v-21.844l-17.812-12.609zm-40.453 373.6c5.7656-14.203 11.156-28.781 16.125-43.312 0.75-2.1562 3.1406-3.3281 5.3438-2.625 2.2031 0.75 3.375 3.1406 2.625 5.3438-4.9688 14.625-10.453 29.344-16.266 43.688-0.65625 1.6406-2.25 2.625-3.8906 2.625-0.51562 0-1.0781-0.09375-1.5938-0.28125-2.1562-0.84375-3.1875-3.3281-2.2969-5.4375zm-82.594 160.69c1.875 1.3125 2.3438 3.9375 1.0312 5.8125-8.9062 12.609-18.328 25.172-28.031 37.312-0.84375 1.0312-2.0625 1.5938-3.2812 1.5938-0.9375 0-1.8281-0.28125-2.625-0.9375-1.8281-1.4062-2.1094-4.0781-0.65625-5.9062 9.5625-12 18.891-24.469 27.703-36.938 1.3594-1.9219 3.9844-2.3906 5.8594-1.0312zm59.484-99.562c2.0625 1.0312 2.9062 3.5625 1.8281 5.625-7.0312 13.781-14.531 27.516-22.406 40.922-0.75 1.3125-2.1562 2.0625-3.6094 2.0625-0.75 0-1.4531-0.1875-2.1094-0.5625-2.0156-1.1719-2.6719-3.75-1.5-5.7188 7.7812-13.312 15.234-26.906 22.172-40.5 1.0312-2.1094 3.5625-2.8594 5.625-1.875zm-217.82 268.13c1.4062 1.8281 1.125 4.5-0.70312 5.9062-12.188 9.5625-24.797 18.938-37.5 27.75-0.75 0.51562-1.5938 0.75-2.3906 0.75-1.3125 0-2.625-0.65625-3.4688-1.7812-1.3125-1.875-0.84375-4.5 1.0312-5.8125 12.562-8.7188 25.031-18 37.078-27.469 1.875-1.4062 4.4531-1.125 5.9062 0.70312zm276.47-439.03c3.6562-14.906 6.8906-30.094 9.6562-45.141 0.42188-2.2969 2.5312-3.7969 4.875-3.375 2.2969 0.42188 3.7969 2.625 3.375 4.875-2.8125 15.234-6.0938 30.562-9.75 45.656-0.46875 1.875-2.1562 3.1875-4.0781 3.1875-0.32812 0-0.65625 0-0.98438-0.09375-2.25-0.5625-3.6562-2.8125-3.0938-5.0625zm-191.21 360.47c1.6875 1.5938 1.7344 4.2656 0.14062 5.9062-10.828 11.391-21.938 22.453-33.094 32.906-0.79688 0.75-1.8281 1.125-2.8594 1.125-1.125 0-2.25-0.46875-3.0938-1.3125-1.5938-1.6875-1.5-4.3594 0.1875-5.9531 11.016-10.312 22.031-21.281 32.719-32.531 1.5938-1.6875 4.2188-1.7812 5.9531-0.1875zm221.81-520.03c-0.5625 15.562-1.5938 31.219-3.0469 46.594-0.1875 2.1562-2.0625 3.7969-4.1719 3.7969h-0.375c-2.2969-0.1875-3.9844-2.25-3.7969-4.5938 1.4531-15.188 2.4375-30.75 3-46.078 0.09375-2.3438 1.8281-4.0312 4.3594-4.0312 2.3438 0.09375 4.125 2.0625 4.0312 4.3125zm-427.64 50.531c-69.75 0-126.47 56.719-126.47 126.47s56.719 126.47 126.47 126.47 126.47-56.719 126.47-126.47-56.719-126.47-126.47-126.47zm0 204.94c-43.266 0-78.469-35.203-78.469-78.469s35.203-78.469 78.469-78.469 78.469 35.203 78.469 78.469c0 43.312-35.203 78.469-78.469 78.469zm237.1-150.47h-26.719c-3.0469-8.8125-6.6094-17.438-10.781-25.781l18.938-18.938c24.844-24.844 24.844-65.25 0-90.094l-11.859-11.906c-24.797-24.375-65.109-24.375-90 0.14062l-18.984 18.938c-8.2031-4.0312-16.781-7.5938-25.734-10.688v-26.859c0-35.062-28.547-63.562-63.609-63.562h-16.781c-35.062 0-63.609 28.5-63.609 63.562v26.859c-8.9062 3.0938-17.531 6.6562-25.734 10.688l-19.125-19.078c-24.797-24.375-65.109-24.422-90 0.09375l-11.766 11.719c-24.844 24.844-24.844 65.25 0 90.094l18.938 18.938c-4.125 8.3438-7.7344 16.969-10.781 25.781h-26.719c-35.062 0-63.609 28.5-63.609 63.609v16.781c0 35.062 28.547 63.562 63.609 63.562h26.719c3 8.8125 6.6094 17.438 10.781 25.875l-18.984 18.844c-24.797 24.844-24.797 65.25 0 90.094l11.766 11.812c24.844 24.797 65.25 24.844 90.094 0l18.938-18.938c8.3438 4.125 16.969 7.7344 25.781 10.781v26.719c0 35.062 28.547 63.609 63.609 63.609h16.781c35.062 0 63.609-28.5 63.609-63.609v-26.719c8.8125-3 17.438-6.6094 25.781-10.781l18.938 18.938c24.844 24.844 65.25 24.797 90.094 0l11.766-11.766c24.797-24.844 24.797-65.25 0-90.094l-18.938-18.938c4.1719-8.3906 7.7344-16.969 10.781-25.781h26.719c35.062 0 63.609-28.5 63.609-63.562v-16.781c0-35.062-28.547-63.609-63.609-63.609zm15.656 80.391c0 8.625-7.0312 15.562-15.609 15.562h-44.625c-11.062 0-20.625 7.5-23.297 18.234-4.0781 16.594-10.734 32.438-19.781 47.25-5.7656 9.4688-4.3125 21.656 3.5156 29.438l31.688 31.688c6.2344 6.2344 6.2344 15.984 0 22.219l-11.719 11.719c-6.2344 6.1875-15.984 6.2812-22.219 0l-31.688-31.688c-7.8281-7.8281-19.969-9.2812-29.438-3.5625-14.719 8.9531-30.656 15.609-47.344 19.781-10.688 2.6719-18.188 12.281-18.188 23.25v44.625c0 8.625-6.9844 15.609-15.609 15.609h-16.781c-8.625 0-15.609-7.0312-15.609-15.609v-44.625c0-11.016-7.5-20.625-18.188-23.25-16.688-4.2188-32.625-10.875-47.344-19.781-3.8438-2.3438-8.1562-3.4688-12.469-3.4688-6.1875 0-12.375 2.3906-16.969 7.0312l-31.688 31.688c-6.2344 6.1875-15.984 6.2812-22.219 0l-11.766-11.766c-6.2344-6.2344-6.2344-15.984-0.09375-22.125l31.688-31.453c7.8281-7.7812 9.375-19.922 3.6562-29.391-9.0938-15.141-15.75-31.172-19.828-47.625-2.625-10.688-12.281-18.234-23.297-18.234h-44.625c-8.625 0-15.609-6.9844-15.609-15.562v-16.781c0-8.625 7.0312-15.609 15.609-15.609h44.625c11.016 0 20.625-7.5 23.297-18.188 4.1719-16.734 10.828-32.672 19.781-47.344 5.7656-9.4688 4.3125-21.609-3.5625-29.438l-31.688-31.688c-6.2344-6.2344-6.2344-16.031 0-22.219l11.625-11.625c6.3281-6.2344 16.172-6.2344 22.359-0.14062l31.688 31.688c7.8281 7.8281 19.969 9.2812 29.438 3.5625 14.062-8.5312 30.094-15.234 47.625-19.875 10.547-2.7656 17.906-12.281 17.906-23.203v-44.625c0-8.625 6.9844-15.562 15.609-15.562h16.781c8.625 0 15.609 6.9844 15.609 15.562v44.625c0 10.875 7.3594 20.438 17.906 23.203 17.531 4.5938 33.562 11.297 47.625 19.875 9.4688 5.7188 21.609 4.3125 29.438-3.5625l31.547-31.547c6.3281-6.1875 16.172-6.1875 22.359-0.09375l11.719 11.719c6.2344 6.2344 6.2344 16.031 0 22.219l-31.688 31.688c-7.8281 7.8281-9.2812 19.969-3.5625 29.438 8.9531 14.719 15.609 30.656 19.781 47.344 2.6719 10.688 12.281 18.188 23.297 18.188h44.625c8.625 0 15.609 7.0312 15.609 15.609v16.781z"/></svg>
