<svg xmlns="http://www.w3.org/2000/svg" viewBox="0 0 1200 1200"><path d="m895.64 1140.6c-11.766 0-23.625-2.4375-34.922-7.4531l-260.72-115.22-260.72 115.22c-28.312 12.516-60.094 9.0938-85.219-9.0938-25.031-18.188-38.062-47.438-34.922-78.188l29.016-283.6-190.13-212.34c-20.625-23.062-27.281-54.375-17.719-83.812s33.328-50.906 63.562-57.422l278.68-60 143.26-246.47c15.562-26.766 43.312-42.703 74.25-42.703s58.688 15.938 74.25 42.703l143.26 246.47 278.68 60c30.281 6.5156 54 27.984 63.562 57.422s2.9062 60.75-17.719 83.812l-190.13 212.34 29.016 283.6c3.1875 30.75-9.9375 60-34.922 78.188-15.094 10.969-32.578 16.547-50.297 16.547zm-295.64-172.92c3.2812 0 6.6094 0.65625 9.7031 2.0625l270.42 119.53c12.469 5.5312 26.531 3.9844 37.594-3.9844 11.062-8.0625 16.781-20.906 15.375-34.5l-30.094-294.19c-0.65625-6.75 1.5-13.406 6-18.469l197.26-220.26c9.0938-10.172 12-24 7.8281-36.938-4.2188-12.984-14.719-22.453-28.031-25.312l-289.03-62.25c-6.5625-1.4062-12.281-5.5781-15.656-11.391l-148.55-255.66c-6.8438-11.812-19.125-18.844-32.719-18.844-13.641 0-25.875 7.0312-32.719 18.844l-148.55 255.66c-3.375 5.8125-9.0938 9.9844-15.656 11.391l-289.03 62.25c-13.359 2.8594-23.812 12.328-28.031 25.312s-1.3125 26.812 7.8281 36.938l197.26 220.26c4.5 5.0625 6.6562 11.719 6 18.469l-30.094 294.14c-1.4062 13.594 4.3594 26.438 15.375 34.5 11.016 7.9688 25.078 9.5156 37.594 3.9844l270.42-119.53c3.0938-1.3594 6.375-2.0625 9.7031-2.0625z"/></svg>
