<svg xmlns="http://www.w3.org/2000/svg" viewBox="0 0 1200 1200"><path d="m1080.8 997.78v-61.312c0-25.875-21-46.875-46.875-46.875h-87.281v-141.28c0-25.875-21-46.875-46.875-46.875h-58.5v-59.062h-83.156v-64.312c0-25.828-21-46.875-46.875-46.875h-87.328v-61.219h-48v61.219h-87.281c-25.828 0-46.875 21-46.875 46.875v64.312h-83.156v59.062h-58.641c-25.828 0-46.875 21-46.875 46.875v141.28h-87.328c-25.828 0-46.875 21-46.875 46.875v61.312h-82.922v166.22h214.22v-166.22h-83.391l-0.84375-60.188 221.48-1.125v61.312h-83.156v166.22h214.26v-166.22h-83.156v-61.312c0-25.875-21-46.875-46.875-46.875h-87.469l-1.0312-140.16h58.641v59.25h214.26v-166.26h-83.391l-0.89063-63.141 221.48-1.125v64.312h-83.156v166.26h214.26v-59.391l57.375-0.9375v141.28h-87.375c-25.828 0-46.875 21-46.875 46.875v61.312h-83.156v166.22h214.26v-166.22h-83.438l-0.84375-60.188 221.48-1.125v61.312h-83.109v166.22h214.22v-166.22h-83.156zm-878.63 118.22h-118.22v-70.219h118.22zm268.4 0h-118.27v-70.219h118.27zm54.422-355.31h-118.27v-70.266h118.27zm268.36 0h-118.27v-70.266h118.27zm54.281 355.31h-118.27v-70.219h118.27zm268.31 0h-118.22v-70.219h118.22zm-600.94-684.94c27.844 3.8906 56.25 5.9062 84.562 5.9062h0.46875c28.359 0 57-1.9688 85.031-5.9062 8.8594-1.2188 16.828-6.1875 21.891-13.5 5.1094-7.4062 6.8438-16.734 4.8281-25.547l-15.469-66.656c-2.8594-12-12.234-20.672-23.766-23.438l7.9219-93.656c15.234-18.234 24.797-41.438 24.797-67.031 0-58.031-47.156-105.19-105.19-105.19s-105.19 47.156-105.19 105.19c0 25.594 9.5625 48.75 24.797 66.984l7.9219 93.703c-11.578 2.7656-20.953 11.484-23.812 23.578l-15.375 66.469c-2.0625 8.8125-0.28125 18.141 4.7812 25.594 5.0625 7.3594 13.031 12.281 21.844 13.5zm85.031-42.094h-0.42188c-20.25 0-40.5-1.125-60.562-3.2812l8.625-37.031h104.81l8.625 37.031c-20.25 2.1562-40.688 3.2812-60.984 3.2812zm-24.469-88.359-4.9688-58.969c9.4219 2.7656 19.172 4.6875 29.438 4.6875s20.016-1.9219 29.391-4.6875l-4.9688 58.922h-48.891zm24.469-216.61c31.5 0 57.188 25.688 57.188 57.188s-25.688 57.188-57.188 57.188c-31.547 0-57.188-25.688-57.188-57.188s25.688-57.188 57.188-57.188zm-195.42 282.71c-12.141-2.5781-23.812-7.875-33.984-16.312 10.172-8.4375 21.891-13.781 34.031-16.312 2.625-12.141 7.875-23.812 16.266-33.984 8.3906 10.172 13.688 21.891 16.266 34.031 12.141 2.5781 23.859 7.9219 34.031 16.312-10.172 8.3906-21.844 13.688-33.984 16.266-2.5781 12.141-7.875 23.859-16.312 34.031-8.4375-10.125-13.734-21.844-16.312-33.984zm-21.891-256.4c10.172-8.4375 21.891-13.781 34.031-16.312 2.625-12.141 7.9219-23.812 16.266-33.984 8.3906 10.172 13.688 21.891 16.266 34.031 12.141 2.5781 23.859 7.9219 34.031 16.312-10.172 8.3906-21.844 13.688-33.984 16.266-2.5781 12.141-7.875 23.859-16.312 34.031-8.4375-10.125-13.734-21.844-16.312-33.984-12.141-2.5781-23.812-7.875-33.984-16.312zm328.36 151.13c10.172-8.4375 21.891-13.781 34.031-16.312 2.625-12.141 7.875-23.812 16.266-33.984 8.3906 10.172 13.688 21.891 16.312 34.031 12.141 2.5781 23.859 7.9219 34.031 16.312-10.172 8.3906-21.844 13.688-33.984 16.266-2.5781 12.141-7.875 23.859-16.312 34.031-8.4375-10.125-13.734-21.844-16.312-33.984-12.141-2.5781-23.812-7.875-33.984-16.312z"/></svg>
