<svg xmlns="http://www.w3.org/2000/svg" viewBox="0 0 1200 1200"><path d="m600 28.125c-151.67 0-297.13 60.25-404.38 167.5-107.25 107.25-167.5 252.7-167.5 404.38s60.25 297.13 167.5 404.38c107.25 107.25 252.7 167.5 404.38 167.5s297.13-60.25 404.38-167.5c107.25-107.25 167.5-252.7 167.5-404.38-0.17188-151.62-60.477-296.98-167.69-404.19s-252.57-167.52-404.19-167.69zm0 1106.2c-141.73 0-277.64-56.301-377.86-156.52s-156.52-236.13-156.52-377.86 56.301-277.64 156.52-377.86 236.13-156.52 377.86-156.52 277.64 56.301 377.86 156.52 156.52 236.13 156.52 377.86c-0.16016 141.68-56.512 277.5-156.69 377.68-100.18 100.18-236.01 156.53-377.68 156.69zm-441.84-707.74c-3.1328 0.003906-6.0664-1.5586-7.8047-4.168-1.7422-2.6055-2.0625-5.9141-0.85547-8.8047 4.8516-11.656 10.234-23.328 16.039-34.699h0.003906c2.4219-4.4727 7.9688-6.1992 12.5-3.8867 4.5312 2.3086 6.3945 7.8125 4.1992 12.398-5.5664 10.941-10.766 22.172-15.418 33.375-1.457 3.5-4.8711 5.7812-8.6641 5.7852zm-9.3906 46.262c-3.332 11.828-6.2266 23.859-8.5859 35.762v-0.003906c-0.86719 4.3828-4.7109 7.5391-9.1758 7.5469-0.62109 0-1.2422-0.0625-1.8477-0.1875-5.0781-1.0117-8.3711-5.9492-7.3633-11.023 2.4531-12.375 5.457-24.883 8.918-37.172 1.3984-4.9844 6.5742-7.8906 11.559-6.4961 4.9844 1.3984 7.8945 6.5742 6.4961 11.559zm-16.113 90.352c-0.93359 12.223-1.4102 24.594-1.4102 36.75 0 5.1758-4.1992 9.375-9.375 9.375s-9.375-4.1992-9.375-9.375c0-12.633 0.49609-25.488 1.4844-38.195 0.54688-5.0781 4.9492-8.8555 10.051-8.625 2.4805 0.19141 4.7812 1.3594 6.3984 3.25 1.6172 1.8867 2.418 4.3398 2.2266 6.8203zm954.6 20.727c0.078125 2.4883-0.83203 4.9062-2.5391 6.7188-1.7031 1.8125-4.0547 2.875-6.543 2.9492h-0.29297c-5.0625 0.003907-9.2109-4.0117-9.375-9.0703-0.375-12.223-1.2656-24.555-2.625-36.648v-0.003906c-0.57031-5.1445 3.1406-9.7812 8.2891-10.348 5.1484-0.57031 9.7812 3.1406 10.352 8.2852 1.3984 12.586 2.332 25.41 2.7344 38.117zm-43.16-184.95c1.1367 2.2773 1.2969 4.9219 0.44531 7.3203s-2.6406 4.3477-4.9609 5.4023c-2.3164 1.0508-4.9609 1.1133-7.3281 0.17578-2.3672-0.9375-4.25-2.7969-5.2188-5.1523-5.0156-11.031-10.566-22.082-16.5-32.84-2.3359-4.5117-0.65625-10.062 3.793-12.52 4.4453-2.457 10.043-0.92578 12.613 3.457 6.1797 11.188 11.957 22.676 17.156 34.156zm23.75 101.6c-0.70312 0.16016-1.4219 0.24609-2.1406 0.24609-4.3555-0.007813-8.1367-3-9.1367-7.2383-2.7852-11.977-6.0625-23.898-9.75-35.438-1.5664-4.9375 1.1641-10.207 6.0977-11.773 4.9336-1.5703 10.207 1.1602 11.773 6.0977 3.8086 12 7.2305 24.391 10.145 36.84 1.1797 5.0391-1.9492 10.082-6.9883 11.266zm-125.59 433.06c3.6289 3.6914 3.5781 9.625-0.11328 13.254-4.5234 4.4688-9.1406 8.8516-13.859 13.148-1.8203 1.7656-4.2773 2.7188-6.8125 2.6406-2.5312-0.078124-4.9258-1.1797-6.6367-3.0508-1.7109-1.875-2.5859-4.3594-2.4336-6.8906 0.15625-2.5312 1.3281-4.8906 3.25-6.543 4.5234-4.1367 8.9727-8.3555 13.348-12.652 3.6875-3.6328 9.6211-3.5938 13.258 0.09375zm-136.76 98.086c2.1367 4.7109 0.054688 10.266-4.6523 12.41-11.625 5.2812-23.566 10.145-35.504 14.453-1.0195 0.375-2.0977 0.56641-3.1875 0.5625-4.5469-0.003906-8.4375-3.2773-9.2227-7.7578s1.7617-8.8789 6.0352-10.43c11.48-4.1484 22.941-8.8125 34.113-13.887 2.2656-1.0312 4.8438-1.1211 7.1719-0.24609 2.3281 0.87109 4.2148 2.6328 5.2461 4.8945zm-181.02 45.824c0.082031 2.4883-0.83203 4.9023-2.5352 6.7148-1.7031 1.8125-4.0586 2.8711-6.5469 2.9453-5.1094 0.16406-10.254 0.24609-15.398 0.24609-7.6914 0-15.332-0.17578-22.926-0.53125-2.4844-0.11719-4.8203-1.2148-6.4922-3.0547-1.6719-1.8398-2.543-4.2695-2.4219-6.75 0.085938-2.4922 1.1758-4.8438 3.0195-6.5234s4.2852-2.5469 6.7734-2.4023c12.215 0.5625 24.574 0.64844 36.859 0.27344h0.29297c5.0664-0.003907 9.2188 4.0195 9.375 9.082zm92.797-13.926h0.003906c1.168 5.043-1.9727 10.078-7.0156 11.25-12.398 2.8828-25.07 5.3008-37.648 7.1875-0.46484 0.066406-0.93359 0.097656-1.4062 0.10156-4.9141 0.007813-9-3.7852-9.3633-8.6875-0.35938-4.9023 3.125-9.25 7.9883-9.9648 12.102-1.8125 24.262-4.125 36.188-6.8906 2.4219-0.57812 4.9766-0.16406 7.0898 1.1523 2.1172 1.3164 3.6172 3.4219 4.168 5.8516zm168.53-80.484c3.0156 4.207 2.0586 10.059-2.1406 13.086-10.402 7.4609-21.168 14.566-31.988 21.113v-0.003906c-2.1289 1.332-4.7031 1.7539-7.1445 1.1719s-4.5469-2.1211-5.8438-4.2656c-1.3008-2.1484-1.6836-4.7266-1.0664-7.1602s2.1836-4.5156 4.3477-5.7852c10.402-6.3008 20.746-13.125 30.75-20.305 2.0234-1.4531 4.5352-2.0391 6.9883-1.6367 2.457 0.40234 4.6484 1.7656 6.0977 3.7852zm-531.02 27.254c-2.7539 4.3906-8.5469 5.7188-12.938 2.9648-10.766-6.75-21.422-14.016-31.641-21.613-2.0742-1.4492-3.4766-3.6797-3.8828-6.1797s0.21484-5.0586 1.7266-7.0938c1.5078-2.0312 3.7773-3.3672 6.2852-3.7031 2.5117-0.33594 5.0508 0.35938 7.0391 1.9258 9.832 7.2969 20.062 14.293 30.434 20.773 4.3867 2.75 5.7188 8.5352 2.9766 12.926zm84.852 40.125c-1.3867 3.6406-4.875 6.043-8.7695 6.0508-1.1406 0-2.2695-0.20703-3.332-0.61328-11.867-4.5-23.73-9.5508-35.266-15h-0.003906c-4.6797-2.2148-6.6797-7.8047-4.4688-12.488 2.2148-4.6797 7.8086-6.6836 12.488-4.4688 11.098 5.25 22.5 10.109 33.91 14.438h0.003907c4.832 1.8398 7.2656 7.2422 5.4375 12.082zm91.059 22.648c-0.74219 4.5234-4.6484 7.8477-9.2305 7.8477-0.51953 0.003906-1.043-0.039063-1.5547-0.12891-12.523-2.0625-25.16-4.6875-37.535-7.7617-5.0273-1.2422-8.0938-6.3242-6.8516-11.352 1.2422-5.0273 6.3242-8.0938 11.352-6.8516 11.918 2.9688 24.059 5.4766 36.109 7.4727 2.4492 0.40234 4.6406 1.7656 6.0859 3.7891 1.4453 2.0195 2.0312 4.5312 1.625 6.9805zm-251.92-132.15c3.7734 3.5508 3.9531 9.4844 0.40625 13.258-3.5508 3.7734-9.4883 3.9531-13.262 0.40234-4.6484-4.375-9.2031-8.8359-13.66-13.387l0.003906 0.003906c-1.8672-1.7461-2.9375-4.1797-2.9688-6.7344-0.03125-2.5547 0.98438-5.0117 2.8047-6.8008 1.8242-1.7891 4.3008-2.7578 6.8516-2.6797 2.5547 0.074219 4.9648 1.1914 6.6797 3.0898 4.3008 4.3633 8.6836 8.6445 13.145 12.848zm74.777-750.78h0.003906c-2.582-4.4844-1.043-10.215 3.4414-12.801 5.5312-3.1875 11.098-6.2539 16.754-9.2305v0.003906c4.5859-2.4062 10.258-0.64062 12.664 3.9453s0.63672 10.258-3.9492 12.664c-5.4375 2.8477-10.785 5.8047-16.094 8.8594-2.1562 1.2422-4.7188 1.5781-7.1211 0.93359-2.4062-0.64453-4.4531-2.2188-5.6953-4.375zm167.09-61.906c-0.36719-2.4609 0.25391-4.9648 1.7383-6.9648 1.4805-1.9961 3.6953-3.3242 6.1562-3.6836 13.402-1.9766 27.082-3.4141 40.668-4.2656 2.4883-0.19922 4.9531 0.62109 6.8281 2.2734 1.875 1.6562 2.9961 4 3.1094 6.4961 0.32031 5.1641-3.6094 9.6133-8.7734 9.9375-13.055 0.81641-26.219 2.1992-39.094 4.1016h0.003906c-0.46484 0.066406-0.92969 0.097656-1.3945 0.097656-4.6367-0.011719-8.5625-3.4102-9.2422-7.9961zm198.94 8.5391c1.4023-4.9805 6.5703-7.8867 11.555-6.5 13.125 3.6602 26.203 7.9258 38.895 12.668v0.003906c2.3672 0.83984 4.3008 2.5938 5.3633 4.875 1.0625 2.2773 1.1641 4.8867 0.28516 7.2422-0.88281 2.3555-2.668 4.2578-4.9648 5.2812-2.2969 1.0234-4.9062 1.082-7.2461 0.16016-12.188-4.5508-24.773-8.6523-37.391-12.176-4.9844-1.4023-7.8867-6.5742-6.4883-11.555zm-295.38 18.332c-0.86719-2.3281-0.77344-4.9102 0.25781-7.1719 1.0352-2.2617 2.9258-4.0195 5.2539-4.8867 12.75-4.7695 25.836-9.0352 38.871-12.688h0.003907c4.9844-1.3984 10.16 1.5117 11.559 6.4961 1.3984 4.9844-1.5117 10.16-6.4961 11.559-12.523 3.5078-25.102 7.6172-37.371 12.188-2.332 0.875-4.9141 0.78516-7.1797-0.24609-2.2656-1.0273-4.0273-2.918-4.8984-5.25zm196.34-33.027c0.10547-2.5 1.2227-4.8516 3.0977-6.5078s4.3477-2.4766 6.8398-2.2734c13.566 0.84375 27.246 2.2617 40.668 4.2305 4.8516 0.71875 8.3281 5.0547 7.9766 9.9453-0.34766 4.8906-4.4102 8.6836-9.3125 8.7031-0.46094 0.003907-0.91797-0.03125-1.375-0.10156-12.91-1.8828-26.074-3.2578-39.129-4.0664v0.003906c-5.1602-0.32812-9.082-4.7695-8.7656-9.9336zm193.05 49.969h0.003906c2.418-4.5664 8.0703-6.3242 12.652-3.9375 5.6602 2.9766 11.238 6.0547 16.734 9.2383 4.4844 2.5898 6.0234 8.3242 3.4336 12.809-2.5898 4.4844-8.3242 6.0234-12.809 3.4336-5.293-3.0586-10.648-6.0156-16.078-8.8711h0.003906c-2.207-1.1562-3.8594-3.1406-4.5977-5.5195-0.73828-2.375-0.5-4.9492 0.66016-7.1523zm125.19 353.91h-20.031v-13.148c30.34-17.672 50.535-48.648 54.473-83.539l8.2227-73.043c3.543-31.52-6.5156-63.055-27.652-86.699-21.141-23.648-51.352-37.168-83.07-37.168h-16.445c-31.715 0.003906-61.93 13.523-83.066 37.172-21.137 23.645-31.195 55.18-27.656 86.699l8.2188 73.051h0.003906c3.9492 34.879 24.145 65.84 54.473 83.52v13.16l-20.031-0.003906c-19.426 0.09375-38.43 5.6602-54.836 16.059-16.469-10.484-35.582-16.051-55.102-16.059h-20.031v-13.148c30.34-17.672 50.535-48.648 54.473-83.539l8.2227-73.043c3.543-31.52-6.5156-63.055-27.652-86.699-21.141-23.648-51.352-37.168-83.07-37.168h-16.445c-31.715 0.003906-61.93 13.523-83.066 37.172-21.137 23.645-31.195 55.18-27.656 86.699l8.2188 73.051h0.003906c3.9492 34.879 24.145 65.84 54.473 83.52v13.16l-20.031-0.003906c-19.531 0.003906-38.652 5.582-55.125 16.07-16.402-10.398-35.398-15.969-54.816-16.07h-20.027v-13.148c30.34-17.672 50.535-48.648 54.473-83.539l8.2227-73.043c3.543-31.52-6.5156-63.055-27.652-86.699-21.141-23.648-51.352-37.168-83.07-37.168h-16.445c-31.715 0.003906-61.93 13.523-83.066 37.172-21.137 23.645-31.195 55.18-27.656 86.699l8.2188 73.051h0.003906c3.9492 34.879 24.145 65.84 54.473 83.52v13.16l-20.031-0.003906c-27.418 0.03125-53.699 10.938-73.082 30.324-19.387 19.387-30.289 45.672-30.316 73.086v227.85c0.015626 13.402 5.3438 26.254 14.824 35.734 9.4766 9.4766 22.324 14.812 35.73 14.832h783.25c13.406-0.015625 26.262-5.3477 35.742-14.828 9.4844-9.4766 14.816-22.332 14.832-35.738v-227.85c-0.03125-27.418-10.938-53.703-30.328-73.09-19.387-19.383-45.672-30.289-73.09-30.32zm-157.95-173.92h0.003907c-2.3555-20.91 4.3125-41.832 18.336-57.52 14.02-15.688 34.066-24.656 55.105-24.656h16.445c21.039 0 41.086 8.9688 55.105 24.656 14.023 15.691 20.691 36.613 18.336 57.52l-8.2227 73.039 0.003906 0.003906c-2.7344 24.289-17.297 45.656-38.906 57.078-21.609 11.422-47.469 11.422-69.078 0-21.609-11.422-36.172-32.789-38.906-57.078zm81.668 176.18 0.097656-0.007813h18.652v23.301c0 6.6992-3.5742 12.887-9.375 16.238-5.8008 3.3477-12.949 3.3477-18.75 0-5.8008-3.3516-9.375-9.5391-9.375-16.238v-23.301h18.652zm-344.16-176.18c-2.3555-20.91 4.3125-41.832 18.336-57.52 14.02-15.688 34.066-24.656 55.105-24.656h16.445c21.039 0 41.086 8.9688 55.105 24.656 14.023 15.691 20.691 36.613 18.336 57.52l-8.2227 73.039 0.003906 0.003906c-2.7344 24.289-17.297 45.656-38.906 57.078-21.609 11.422-47.469 11.422-69.078 0-21.609-11.422-36.172-32.789-38.906-57.078zm81.664 176.18 0.097656-0.007813h18.652v23.301c0 6.6992-3.5742 12.887-9.375 16.238-5.8008 3.3477-12.949 3.3477-18.75 0-5.8008-3.3516-9.375-9.5391-9.375-16.238v-23.301h18.652zm-54.91 35.238c3.6445 16.859 14.832 31.109 30.34 38.648 15.512 7.543 33.629 7.543 49.141 0 15.508-7.5391 26.695-21.789 30.34-38.648h21.375c17.477 0.019532 34.23 6.9688 46.59 19.324 12.355 12.355 19.309 29.109 19.328 46.586v175.28h-35.945c-5.1797 0-9.375 4.1992-9.375 9.375 0 5.1797 4.1953 9.375 9.375 9.375h35.945v33.82h-0.003906c-0.007813 7.2148-5.8594 13.062-13.074 13.066h-258.25c-7.2109-0.011719-13.051-5.8594-13.055-13.066v-33.82h40.633-0.003906c5.1797 0 9.375-4.1953 9.375-9.375 0-5.1758-4.1953-9.375-9.375-9.375h-40.629v-175.28c0.019532-17.473 6.9648-34.227 19.32-46.582s29.105-19.305 46.578-19.328zm-289.25-211.42c-2.3555-20.91 4.3125-41.832 18.336-57.52 14.02-15.688 34.066-24.656 55.105-24.656h16.445c21.039 0 41.086 8.9688 55.105 24.656 14.023 15.691 20.691 36.613 18.336 57.52l-8.2227 73.039 0.003906 0.003906c-2.7344 24.289-17.297 45.656-38.906 57.078-21.609 11.422-47.469 11.422-69.078 0-21.609-11.422-36.172-32.789-38.906-57.078zm81.664 176.18 0.097656-0.007813h18.652v23.301c0 6.6992-3.5742 12.887-9.375 16.238-5.8008 3.3477-12.949 3.3477-18.75 0-5.8008-3.3516-9.375-9.5391-9.375-16.238v-23.301h18.652zm-142.18 329v-33.82h21.883-0.003906c5.1797 0 9.375-4.1953 9.375-9.375 0-5.1758-4.1953-9.375-9.375-9.375h-21.879v-175.28c0.019532-17.473 6.9648-34.227 19.32-46.582s29.105-19.305 46.578-19.328h21.375c3.6445 16.859 14.832 31.109 30.34 38.648 15.512 7.543 33.629 7.543 49.137 0 15.512-7.5391 26.699-21.789 30.344-38.648h21.375c8.9922 0.074219 17.871 1.9883 26.09 5.625-12.707 17.531-19.551 38.629-19.551 60.277v227.86c0.058594 4.4219 0.70703 8.8125 1.9258 13.066h-213.88c-7.2109-0.011719-13.051-5.8594-13.055-13.066zm796.31 13.066h-213.86c1.2188-4.2539 1.8672-8.6445 1.9258-13.066v-227.85c-0.003907-21.656-6.8516-42.754-19.562-60.281 8.2188-3.6406 17.094-5.5547 26.082-5.625h21.375c3.6445 16.855 14.832 31.105 30.34 38.648 15.512 7.543 33.629 7.543 49.137 0 15.512-7.543 26.699-21.793 30.344-38.648h21.375c17.477 0.015626 34.23 6.9688 46.59 19.324 12.355 12.355 19.309 29.109 19.328 46.582v175.28h-18.75v0.003906c-5.1758 0-9.375 4.1953-9.375 9.375 0 5.1758 4.1992 9.375 9.375 9.375h18.75v33.82-0.003906c-0.007812 7.2188-5.8633 13.066-13.082 13.066zm-52.559-56.262c0 2.4883-0.98828 4.8711-2.7461 6.6289-1.7578 1.7578-4.1406 2.7461-6.6289 2.7461h-37.5c-5.1758 0-9.375-4.1953-9.375-9.375 0-5.1758 4.1992-9.375 9.375-9.375h37.5c2.4883 0 4.8711 0.98828 6.6289 2.7461s2.7461 4.1445 2.7461 6.6289zm-93.75 0c0 2.4883-0.98828 4.8711-2.7461 6.6289-1.7578 1.7578-4.1406 2.7461-6.6289 2.7461h-37.5c-5.1758 0-9.375-4.1953-9.375-9.375 0-5.1758 4.1992-9.375 9.375-9.375h37.5c2.4883 0 4.8711 0.98828 6.6289 2.7461s2.7461 4.1445 2.7461 6.6289zm-431.25 0c0 2.4883-0.98828 4.8711-2.7461 6.6289-1.7578 1.7578-4.1406 2.7461-6.6289 2.7461h-37.5c-5.1758 0-9.375-4.1953-9.375-9.375 0-5.1758 4.1992-9.375 9.375-9.375h37.5c5.1797 0 9.375 4.1992 9.375 9.375zm-93.75 0c0 2.4883-0.98828 4.8711-2.7461 6.6289-1.7578 1.7578-4.1406 2.7461-6.6289 2.7461h-37.5c-5.1758 0-9.375-4.1953-9.375-9.375 0-5.1758 4.1992-9.375 9.375-9.375h37.5c5.1797 0 9.375 4.1992 9.375 9.375zm300 0c0-5.1758 4.1992-9.375 9.375-9.375h37.5c5.1797 0 9.375 4.1992 9.375 9.375 0 5.1797-4.1953 9.375-9.375 9.375h-37.5c-5.1758 0-9.375-4.1953-9.375-9.375zm-93.75 0c0-5.1758 4.1992-9.375 9.375-9.375h37.5c5.1797 0 9.375 4.1992 9.375 9.375 0 5.1797-4.1953 9.375-9.375 9.375h-37.5c-2.4844 0-4.8711-0.98828-6.6289-2.7461-1.7578-1.7578-2.7461-4.1406-2.7461-6.6289z"/></svg>
