<svg xmlns="http://www.w3.org/2000/svg" viewBox="0 0 1200 1200"><path d="m475.45 407.68-12.469 48h-48l12.469-48zm-86.672 150h48l12.469-48h-48zm-25.922 102h48l12.469-48h-48zm304.6-252-12.469 48h48l12.469-48zm-72 0h-48l-12.469 48h48zm-266.16 102h-48l-12.469 48h48zm-86.438 150h48l12.469-48h-48zm265.92-102h27.375c8.3906-7.2188 17.062-14.156 25.922-20.391l7.2188-27.609h-48l-12.469 48zm553.45 261.56c0.70312-7.2188 0.9375-14.625 0.9375-22.078 0-8.625-0.23438-17.297-1.2188-25.922h47.062l-29.062-115.22-82.781-327.37-55.219 218.63c-13.219-10.312-27.609-19.922-42.469-28.078l66.703-263.76h-232.78c5.9531 12.516 16.172 22.641 28.969 28.031 6.2812-4.2656 13.875-6.7969 22.031-6.7969 21.656 0 39.281 17.625 39.281 39.328s-17.625 39.281-39.281 39.281c-17.156 0-31.641-11.109-36.984-26.484-32.062-12.234-56.484-39.562-64.5-73.406h-162.19c5.9062 12.516 16.172 22.641 28.969 28.031 6.2812-4.2656 13.875-6.7969 22.031-6.7969 21.656 0 39.328 17.625 39.328 39.328s-17.625 39.281-39.328 39.281c-17.156 0-31.641-11.109-36.984-26.484-32.062-12.188-56.484-39.562-64.5-73.453h-162.19c5.9531 12.516 16.172 22.641 28.969 28.031 6.2812-4.2656 13.875-6.7969 22.031-6.7969 21.656 0 39.328 17.625 39.328 39.328s-17.625 39.281-39.328 39.281c-17.156 0-31.641-11.109-36.984-26.484-32.062-12.234-56.484-39.562-64.5-73.406h-36.047l-130.55 515.76h337.45c-0.9375 8.625-1.2188 17.297-1.2188 25.922 0 7.4531 0.23438 14.859 0.9375 22.078l-399.1 0.23438 155.02-611.76h73.453c10.875-46.125 52.172-80.625 101.53-80.625 49.406 0 90.656 34.547 101.53 80.625h9.6094c10.875-46.125 52.125-80.625 101.53-80.625s90.656 34.547 101.53 80.625h9.6094c10.875-46.125 52.172-80.625 101.53-80.625 49.406 0 90.656 34.547 101.53 80.625h129.94l6.7031 26.391c0 0.46875 0.23438 0.70312 0.46875 1.2188l101.53 402 46.312 182.16h-108.7zm-328.82-611.76h102.14c-9.0469-19.219-28.453-32.625-51.047-32.625s-42 13.406-51.047 32.625zm-212.72 0h102.14c-9.0469-19.219-28.453-32.625-51.047-32.625s-42 13.406-51.047 32.625zm-212.68 0h102.14c-9.0469-19.219-28.453-32.625-51.047-32.625s-42 13.406-51.047 32.625zm713.21 589.69c0 152.16-123.79 276-276 276s-276-123.84-276-276c0-152.16 123.84-276 276-276s276 123.79 276 276zm-445.45-19.359c5.2031 9 14.438 14.719 24.703 15.188h2.2031c5.3438 0 10.406-1.3125 14.719-3.8906l57.047-32.906v-65.203c0-1.6875 0.09375-3.2812 0.1875-5.2969 1.0781-29.156 9-56.906 22.969-81.141 7.3594-12.703 16.453-24 26.531-34.312-14.531 1.3594-28.688 4.125-42.281 8.1094-27.891 8.3906-49.875 27.188-60.234 51.984-0.89062 2.1562-1.6875 4.2656-2.1562 6.1875-3.4688 14.906-5.5312 29.625-6.0938 43.688-0.09375 1.7812-0.1875 3.1406-0.1875 4.4531l-0.1875 36.047-25.969 15.094c-4.5938 2.625-8.4375 6.4688-11.062 11.156-5.7188 9.8438-5.7188 21.047-0.09375 30.844zm134.06 192.19 4.2188-2.25 31.031-17.531 25.875 14.625c15.094 8.625 34.031 3 42.094-11.062 5.25-9.0938 5.5781-19.875 0.84375-28.969-2.8125-5.625-6.9375-9.9844-12.094-12.984l-56.719-32.719-60.469 34.781c-40.5 21.281-84.609 25.5-125.02 15.281 14.062 19.688 31.125 36.984 50.578 51.375 9 5.8594 18.844 9.375 28.875 9.9844 11.906 0 21-1.3125 29.859-3.9375 13.969-4.1719 28.031-9.8438 40.828-16.5zm200.39-15.938 0.46875-6.8438c1.7812-25.031-3.8438-49.594-16.312-71.062-10.031-17.438-24.516-32.344-42.047-43.312-2.0625-1.4062-2.9062-1.9688-3.75-2.4844l-80.438-46.453v-93.281c-0.1875-15.188 4.3125-30.141 12.844-43.078 14.156-22.125 38.766-35.578 65.531-35.578 28.5 0 54.047 14.672 68.344 39.281 6.9375 12.234 10.547 25.734 10.547 39.281v2.5312l7.3594 4.3125c3.4219 2.1562 5.1562 3.2812 6.75 4.4531 5.8125 3.6562 11.812 8.0625 17.812 12.609-26.859-68.672-85.969-121.08-158.72-138.71l-6.1406 3.0469c-22.5 10.875-40.922 28.078-53.438 49.734-10.031 17.438-15.75 37.547-16.5 58.031l-0.1875 4.4062v92.953l-80.766 46.594c-11.438 6.7969-24.984 10.5-39 10.5h-3.375c-27.844-1.3125-51.75-15.938-65.156-39.188-14.25-24.75-14.156-54.188 0.1875-78.844 6.8438-11.812 16.688-21.75 28.547-28.594l2.2031-1.3125 0.046876-8.4375c0-2.3438 0.09375-4.875 0.28125-7.0312 0.32812-7.3594 1.0781-15.047 2.1094-22.828-31.359 39.047-50.25 88.547-50.25 142.45 0 22.406 3.375 44.016 9.4219 64.453l5.8125 3.9375c37.312 25.125 87.375 28.125 128.34 6.5625l3.9375-2.0625 80.391-46.406 80.766 46.594c13.312 7.6875 24 19.031 30.844 32.766 12.188 23.531 11.438 51.562-2.0625 74.812-14.062 24.562-39.656 39.281-68.25 39.281-13.688 0-27.188-3.6562-39.188-10.5l-2.1562-1.2188-7.5 4.2188c-1.9688 1.2188-4.6875 2.625-7.1719 3.7031-6.0469 3.1875-12.703 6.1406-19.5 9 11.203 1.6875 22.594 2.8594 34.266 2.8594 64.875 0 123.42-27.422 164.95-71.062zm42.094-62.062c9.1875-20.016 15.516-41.531 18.609-64.125 2.25-20.531-5.625-41.906-21.703-57.562-11.812-11.25-24.047-20.906-36.703-28.875l-3.8438-2.5312-30.984-18.141-0.1875-30c0-5.4375-1.4062-10.734-4.125-15.516-5.5781-9.5625-15.375-15.188-26.719-15.188-10.312 0-19.781 5.1562-25.359 13.781-3.4688 5.25-5.1562 10.828-5.0625 16.594v65.812l56.438 32.625c1.8281 1.0312 3.6562 2.25 6.0938 3.9375 23.297 14.531 43.406 35.344 57.281 59.438 7.2656 12.562 12.469 25.969 16.359 39.797z"/></svg>
