<svg id="Layer_1" xmlns="http://www.w3.org/2000/svg" version="1.1" viewBox="0 0 1200 1200">
  <path d="M905.53,1065.99h.1s-13.12-52.68-13.12-52.68c1.03-16.59,0-33.14-3.84-49.27-4.12-17.48-11.3-33.84-20.67-49.12l-13.78-55.22c-7.03-28.12-32.95-47.06-61.31-46.64-2.25-8.62-4.64-17.11-6.7-25.97-20.62-88.69-24.94-183.1-12.84-280.74,18.56-13.22,35.25-28.73,49.69-46.17,19.03-23.06,33.84-49.17,44.16-77.62,7.22-20.06,4.97-42-6.28-60.28-5.91-9.61-13.88-17.39-23.16-23.16.8-7.97,1.31-15.94,1.31-23.95,0-131.86-107.25-239.16-239.16-239.16s-239.16,107.25-239.16,239.16c0,8.11.52,16.17,1.31,24.14-9.09,5.72-16.92,13.5-22.78,22.97-11.25,18.28-13.5,40.22-6.28,60.23,10.31,28.5,25.12,54.61,44.16,77.62,14.3,17.3,30.84,32.72,49.31,45.89,12.84,105.98,6.38,209.26-19.22,307.03-28.59-.56-54.56,18.38-61.64,46.59l-13.41,53.77c-10.69,15.28-18.7,32.62-22.88,50.72-3.84,16.73-4.55,33.75-2.39,50.67l-12.75,51.19c-4.08,16.45-1.22,34.08,7.88,48.38,9.14,14.39,23.34,24.09,40.08,27.38,74.81,14.62,163.92,22.31,257.72,22.31s182.9-7.73,257.72-22.31c16.69-3.28,30.94-12.98,40.08-27.38,9.09-14.25,11.95-31.88,7.88-48.38ZM720.94,127.33c32.91,27,56.62,64.73,65.81,107.81h.09s-24.47,0-24.47,0l-18.75-8.53-30.56-.8-13.31-33.33,20.72-39.19.47-25.97ZM544.55,92.23c17.53-5.3,36.09-8.25,55.36-8.25,38.2,0,73.73,11.39,103.59,30.75l.1.05v32.11l-23.58,44.58,20.91,52.41h37.03l18.75,8.53,33,.47c.84,7.36,1.41,14.77,1.41,22.36,0,4.45-.7,8.91-1.03,13.36-11.44,1.22-22.22,5.2-31.59,11.58l-41.72-9.14-22.27,43.59,14.91,36.56c-3.94,4.45-8.34,8.72-13.22,12.7-2.25-18.61-9.33-36.47-21.7-51.19-18.56-22.03-45.7-34.69-74.53-34.69-24.47,0-47.44,9.56-65.25,25.83l-17.16-20.86v-24.56l58.5-69.66v-44.81l-40.78-21.56,9.28-50.16ZM742.51,315.07c-4.59,5.81-8.44,12.42-11.16,19.69-2.58,6.84-5.77,13.27-9.42,19.36h0s-7.59-18.66-7.59-18.66l12.19-23.91,15.98,3.52ZM551.36,403.8c-2.48-14.39,1.5-29.06,10.88-40.22,9.42-11.16,23.2-17.58,37.78-17.58s28.41,6.42,37.78,17.58c9.38,11.16,13.36,25.83,10.88,40.22l-1.03,5.95c-4.03,23.25-24.09,40.12-47.62,40.12s-43.59-16.88-47.62-40.12v-.05s-1.03-5.91-1.03-5.91ZM525.06,99.36l-.05.05-9.75,52.78,42.84,22.69v27.38l-58.5,69.66v37.55l22.83,27.8c-3.09,4.12-6.23,8.3-8.58,12.8l-30.8-34.78-.66-30.94h-73.12c-.14-3.05-.38-6.09-.38-9.19,0-78.8,47.91-146.58,116.16-175.78ZM506.5,368.79c-1.69,5.91-2.58,11.95-3.09,18.09-4.73-5.16-9.42-10.59-13.78-16.88h-.09c-8.16-11.62-14.81-24.28-19.78-37.59-4.69-12.33-12.75-22.5-22.78-30.09h17.81l.47,19.92,41.25,46.55ZM414.49,429.5l-.1.09c-15.52-18.75-27.66-40.12-36.05-63.38-3.09-8.48-.05-15.42,2.02-18.8,3.75-6.05,9.89-10.03,16.92-10.88l3.94-.47c10.12-1.31,20.25,4.36,23.62,13.31,6.38,17.02,14.95,33.19,25.41,48.14,25.36,36.14,56.67,57.42,79.12,69.14,17.72,19.22,42.84,31.17,70.69,31.17,32.11,0,60.66-15.94,78.28-40.69.09-.05.19-.05.23-.14l33.19-24.8c14.2-9.23,26.72-20.39,37.31-33.19,11.62-14.06,20.81-30,27.33-47.53,3.94-10.45,13.41-16.55,23.44-15.38l3.38.42c7.03.84,13.22,4.83,16.92,10.88,2.06,3.38,5.06,10.31,2.02,18.8-8.44,23.3-20.53,44.62-36,63.38-13.69,16.59-29.91,30.98-48.14,42.84-.23.14-.33.42-.56.56-41.02,20.86-63.8,74.02-43.97,114.94-1.36-25.5,10.64-49.03,29.67-62.06-9.09,94.27-3.66,185.63,16.45,272.06.05.28.14.52.19.8-24.66-8.67-47.81-28.83-59.06-58.36-1.5,29.86,10.45,59.53,30.75,82.41-39.94,3.42-83.44,4.88-126.56,4.41,8.48-31.36,7.12-64.78-7.55-96.19,3.23,33.7-6.19,67.5-24.19,95.53-23.25-.75-45.94-2.11-67.59-4.03,19.69-26.48,31.59-56.95,34.55-86.77-14.62,25.97-35.77,46.08-59.02,59.39,19.22-86.77,24.56-177.1,15.89-269.53,18.98,13.08,30.98,36.56,29.58,62.02,19.73-40.78-2.81-93.75-43.59-114.75-.28-.19-.42-.52-.7-.7-18.19-11.86-34.22-26.2-47.81-42.66ZM392.41,871.29c1.78-7.12,8.77-11.62,16.31-10.17h-.04c108.84,19.22,273.94,19.22,382.69,0,7.5-1.36,14.53,3.05,16.31,10.17l8.48,33.98c-23.34,4.73-49.59,8.67-78.38,11.77-84.47,9-184.03,9.23-269.16.66-32.72-3.28-61.08-8.11-84.61-12.8l8.39-33.61ZM356.26,974.92c1.97-8.58,5.16-16.97,9.47-24.75,25.36,5.25,59.25,11.34,98.06,15.28,88.41,8.91,191.34,8.62,279.1-.7,33.38-3.56,63.75-8.25,90.52-14.06,3.75,7.78,6.61,15.94,8.62,24.38,1.69,7.22,2.72,14.53,3.09,21.94-24.61,5.16-54.98,10.78-90.28,14.77-92.53,10.41-202.69,10.92-296.76,1.36-38.34-3.89-73.31-9.28-104.2-16.12l-.06.05c0-7.45.8-14.91,2.44-22.12ZM857.13,1088.51l.18.05c-1.17,1.83-3.84,5.06-8.81,6-71.81,14.02-157.78,21.42-248.53,21.42s-176.68-7.41-248.53-21.42c-4.92-.94-7.59-4.17-8.81-6-1.22-1.92-3.05-5.86-1.78-10.97l8.11-32.58c31.36,6.66,66.14,12,104.11,15.84,46.41,4.73,95.81,7.12,146.81,7.12,56.06,0,109.97-2.86,160.18-8.53,35.25-3.98,65.77-9.47,90.7-14.67l8.16,32.77c1.31,5.11-.56,9.09-1.78,10.97Z"/>
</svg>
